<svg id="Слой_1" data-name="Слой 1" xmlns="http://www.w3.org/2000/svg" viewBox="0 0 946.37 804.22"><defs><style>.cls-1,.cls-5{fill:none;}.cls-1,.cls-4,.cls-5{stroke:#1d1d1b;stroke-miterlimit:10;}.cls-1{stroke-width:40px;}.cls-2,.cls-4{fill:#fff;}.cls-3{font-size:500px;fill:#1d1d1b;font-family:Impact;}.cls-4,.cls-5{stroke-width:6px;}.cls-6{fill:#0f1116;}</style></defs><rect class="cls-1" x="33.22" y="20" width="764.22" height="764.22"/><rect class="cls-2" y="131.12" width="834.52" height="541.98"/><text class="cls-3" transform="translate(0 594.92)">РП</text><rect class="cls-4" x="644.46" y="199.43" width="298.91" height="395.49"/><line class="cls-5" x1="686.15" y1="274.55" x2="891.53" y2="274.55"/><line class="cls-5" x1="686.15" y1="317.07" x2="891.53" y2="317.07"/><line class="cls-5" x1="686.15" y1="359.59" x2="891.53" y2="359.59"/><line class="cls-5" x1="686.15" y1="402.11" x2="891.53" y2="402.11"/><line class="cls-5" x1="777.97" y1="510.69" x2="891.06" y2="510.69"/><line class="cls-5" x1="777.97" y1="544.7" x2="891.06" y2="544.7"/><path class="cls-6" d="M878.55,614.38a31.36,31.36,0,0,0-22.29,9.23,31.51,31.51,0,0,0,0,44.58,31.54,31.54,0,1,0,22.29-53.81Zm0,59.88a28.29,28.29,0,1,1,11-2.23,28.18,28.18,0,0,1-11,2.23Z" transform="translate(-151.6 -164.82)"/><path class="cls-6" d="M890.74,625.53l-18.37,23.76-7.82-6.71-7.56,8.8,8.51,7.3,8.83,7.58,25.78-33.88-9.37-6.85Zm-17.91,28.33,2-2.64,16.49-21.31,4.28,3.12-21.8,28.65-6.28-5.4-6.1-5.24,3.43-4,5.42,4.65,2.52,2.17Z" transform="translate(-151.6 -164.82)"/><path class="cls-6" d="M878.58,597.62l7.5,4.74,1,.65,1.2-.2,8.75-1.5,5.11,7.26.7,1,1.19.27,8.65,1.95,2,8.66.27,1.18,1,.7,7.24,5.13-1.52,8.74-.21,1.2.66,1,4.74,7.5-4.74,7.5-.65,1,.21,1.2,1.49,8.74-7.25,5.12-1,.7-.27,1.19-2,8.65L904,682l-1.18.27-.7,1L897,690.51,888.26,689l-1.2-.21-1,.65-7.5,4.74-7.5-4.73-1-.65-1.2.2-8.74,1.5L855,683.23l-.71-1-1.18-.27-8.66-2-2-8.65-.26-1.18-1-.71-7.24-5.12,1.52-8.74.21-1.2-.65-1-4.74-7.51,4.73-7.49.65-1-.2-1.2-1.5-8.74,7.26-5.12,1-.7.27-1.19,2-8.65,8.65-2,1.19-.27.7-1,5.12-7.24,8.74,1.52,1.2.21,1-.65,7.51-4.75m0,88.43a40,40,0,1,0-15.63-3.15,40,40,0,0,0,15.63,3.15m0-92.17-9.2,5.81-10.71-1.86-6.28,8.87-10.6,2.4-2.4,10.61L830.51,626l1.83,10.71-5.81,9.2,5.81,9.19-1.86,10.71,8.88,6.28,2.39,10.6,10.61,2.4,6.26,8.89,10.72-1.84,9.19,5.81,9.19-5.81L898.43,694l6.28-8.88,10.61-2.39,2.39-10.61,8.89-6.26-1.83-10.72,5.8-9.19-5.81-9.19L926.62,626l-8.87-6.28-2.4-10.6-10.6-2.4-6.27-8.89-10.71,1.84-9.19-5.81Zm0,89a37,37,0,1,1,37-37,37,37,0,0,1-37,37Z" transform="translate(-151.6 -164.82)"/></svg>